<?xml version="1.0" standalone="no"?>
<!DOCTYPE svg PUBLIC "-//W3C//DTD SVG 20010904//EN"
 "http://www.w3.org/TR/2001/REC-SVG-20010904/DTD/svg10.dtd">
<svg version="1.0" xmlns="http://www.w3.org/2000/svg"
 width="1024.000000pt" height="1024.000000pt" viewBox="0 0 1024.000000 1024.000000"
 preserveAspectRatio="xMidYMid meet">
<metadata>
Created by potrace 1.11, written by Peter Selinger 2001-2013
</metadata>
<g transform="translate(0.000000,1024.000000) scale(0.100000,-0.100000)"
fill="#000000" stroke="none">
<path d="M4086 8382 c-82 -141 -156 -268 -165 -282 -8 -14 -23 -39 -33 -57
-18 -33 -327 -567 -453 -783 -40 -69 -82 -141 -93 -160 -10 -19 -33 -59 -51
-88 -17 -29 -31 -57 -31 -62 0 -6 -4 -10 -10 -10 -5 0 -10 -4 -10 -9 0 -6 -46
-88 -101 -183 -56 -95 -113 -193 -127 -218 -28 -51 -239 -415 -342 -590 -37
-63 -85 -146 -106 -183 -21 -38 -44 -76 -49 -85 -6 -9 -29 -51 -53 -92 -24
-41 -52 -91 -63 -110 -12 -19 -82 -141 -156 -270 -75 -129 -148 -255 -163
-280 -15 -25 -54 -92 -87 -150 -34 -58 -109 -187 -167 -288 -58 -100 -106
-187 -106 -192 0 -6 -4 -10 -10 -10 -5 0 -10 -4 -10 -10 0 -5 -20 -42 -44 -82
-38 -64 -449 -774 -511 -883 -13 -22 -78 -134 -145 -250 -68 -115 -132 -226
-143 -245 -10 -19 -52 -91 -92 -160 -40 -69 -98 -169 -129 -222 -50 -87 -128
-222 -190 -329 -12 -20 -59 -102 -106 -183 -47 -81 -94 -162 -105 -181 -31
-53 -75 -134 -75 -138 0 -7 9910 -4 9915 2 2 4 -30 65 -71 135 -41 70 -74 130
-74 132 0 3 -8 17 -19 32 -10 15 -36 59 -59 97 -22 39 -119 205 -214 370 -96
165 -186 320 -200 345 -14 25 -86 149 -160 275 -74 127 -146 250 -160 275 -14
25 -81 140 -148 255 -67 116 -133 229 -146 252 -13 23 -54 93 -90 155 -37 62
-75 128 -86 147 -11 19 -59 102 -108 185 -48 83 -97 167 -108 186 -11 19 -59
103 -107 185 -81 137 -129 220 -175 300 -9 17 -212 365 -450 775 -239 410
-440 756 -447 770 -8 14 -25 43 -39 65 -13 22 -27 47 -31 55 -3 8 -11 22 -18
30 -7 8 -25 40 -41 70 -16 30 -36 66 -45 80 -9 14 -133 225 -274 470 -142 245
-259 446 -260 447 -1 2 -75 -124 -210 -359 -78 -136 -182 -317 -190 -330 -5
-9 -23 -41 -39 -70 -15 -29 -34 -60 -42 -69 -8 -8 -14 -18 -14 -21 0 -5 -87
-158 -235 -413 -32 -55 -70 -122 -84 -148 -14 -26 -35 -60 -47 -74 l-21 -26
-14 29 c-9 16 -83 146 -166 289 -83 143 -160 276 -170 295 -11 19 -118 204
-238 410 -218 376 -699 1207 -783 1353 -25 43 -48 80 -52 82 -3 2 -73 -112
-154 -253z"/>
</g>
</svg>
